<mxfile host="app.diagrams.net" agent="Mozilla/5.0 (Windows NT 10.0; Win64; x64) AppleWebKit/537.36 (KHTML, like Gecko) Chrome/133.0.0.0 Safari/537.36 OPR/118.0.0.0" version="27.0.8">
  <diagram name="Página-1" id="OCbg1fWss5JaaPH4OTD6">
    <mxGraphModel dx="3154" dy="2129" grid="1" gridSize="10" guides="1" tooltips="1" connect="1" arrows="1" fold="1" page="1" pageScale="1" pageWidth="827" pageHeight="1169" math="0" shadow="0">
      <root>
        <mxCell id="0" />
        <mxCell id="1" parent="0" />
        <mxCell id="nodbz45rd-xEnm5y1TOQ-29" value="" style="rounded=0;whiteSpace=wrap;html=1;fillColor=light-dark(#FFFFFF,#1A1A1A);" parent="1" vertex="1">
          <mxGeometry x="-220" y="-240" width="1380" height="950" as="geometry" />
        </mxCell>
        <mxCell id="nodbz45rd-xEnm5y1TOQ-1" value="ALMACEN CONSUMO HIDALGO" style="rounded=0;whiteSpace=wrap;html=1;" parent="1" vertex="1">
          <mxGeometry x="-130" y="-80" width="120" height="550" as="geometry" />
        </mxCell>
        <mxCell id="nodbz45rd-xEnm5y1TOQ-2" value="FARMACIA EXTERNA" style="rounded=0;whiteSpace=wrap;html=1;" parent="1" vertex="1">
          <mxGeometry x="610" y="140" width="120" height="340" as="geometry" />
        </mxCell>
        <mxCell id="nodbz45rd-xEnm5y1TOQ-3" value="FARMACIA INTERNA" style="rounded=0;whiteSpace=wrap;html=1;" parent="1" vertex="1">
          <mxGeometry x="210" y="140" width="120" height="340" as="geometry" />
        </mxCell>
        <mxCell id="nodbz45rd-xEnm5y1TOQ-6" value="ALMACÉN SANTA FE" style="rounded=0;whiteSpace=wrap;html=1;" parent="1" vertex="1">
          <mxGeometry x="-430" y="70" width="120" height="190" as="geometry" />
        </mxCell>
        <mxCell id="nodbz45rd-xEnm5y1TOQ-8" value="realiza pedido foliado en piezas (UNIDOSIS)" style="text;html=1;align=center;verticalAlign=middle;whiteSpace=wrap;rounded=0;" parent="1" vertex="1">
          <mxGeometry x="380" y="160" width="216" height="30" as="geometry" />
        </mxCell>
        <mxCell id="nodbz45rd-xEnm5y1TOQ-9" value="" style="endArrow=classic;html=1;rounded=0;entryX=0.997;entryY=0.169;entryDx=0;entryDy=0;exitX=-0.017;exitY=0.178;exitDx=0;exitDy=0;exitPerimeter=0;entryPerimeter=0;" parent="1" source="nodbz45rd-xEnm5y1TOQ-2" target="nodbz45rd-xEnm5y1TOQ-3" edge="1">
          <mxGeometry width="50" height="50" relative="1" as="geometry">
            <mxPoint x="480" y="320" as="sourcePoint" />
            <mxPoint x="530" y="270" as="targetPoint" />
          </mxGeometry>
        </mxCell>
        <mxCell id="nodbz45rd-xEnm5y1TOQ-10" value="" style="endArrow=classic;html=1;rounded=0;entryX=0.01;entryY=0.418;entryDx=0;entryDy=0;entryPerimeter=0;exitX=1.003;exitY=0.423;exitDx=0;exitDy=0;exitPerimeter=0;" parent="1" source="nodbz45rd-xEnm5y1TOQ-3" target="nodbz45rd-xEnm5y1TOQ-2" edge="1">
          <mxGeometry width="50" height="50" relative="1" as="geometry">
            <mxPoint x="380" y="340" as="sourcePoint" />
            <mxPoint x="430" y="290" as="targetPoint" />
          </mxGeometry>
        </mxCell>
        <mxCell id="nodbz45rd-xEnm5y1TOQ-12" value="surte&amp;nbsp; pedido foliado en piezas (UNIDOSIS)" style="text;html=1;align=center;verticalAlign=middle;whiteSpace=wrap;rounded=0;" parent="1" vertex="1">
          <mxGeometry x="350" y="240" width="216" height="30" as="geometry" />
        </mxCell>
        <mxCell id="nodbz45rd-xEnm5y1TOQ-13" value="" style="shape=cylinder3;whiteSpace=wrap;html=1;boundedLbl=1;backgroundOutline=1;size=15;" parent="1" vertex="1">
          <mxGeometry x="990" y="250" width="60" height="80" as="geometry" />
        </mxCell>
        <mxCell id="nodbz45rd-xEnm5y1TOQ-14" value="" style="endArrow=classic;html=1;rounded=0;exitX=0.997;exitY=0.468;exitDx=0;exitDy=0;exitPerimeter=0;entryX=0;entryY=0;entryDx=0;entryDy=52.5;entryPerimeter=0;" parent="1" source="nodbz45rd-xEnm5y1TOQ-2" target="nodbz45rd-xEnm5y1TOQ-13" edge="1">
          <mxGeometry width="50" height="50" relative="1" as="geometry">
            <mxPoint x="770" y="300" as="sourcePoint" />
            <mxPoint x="820" y="250" as="targetPoint" />
          </mxGeometry>
        </mxCell>
        <mxCell id="nodbz45rd-xEnm5y1TOQ-15" value="recibe pedido foliado en piezas unidosis" style="text;html=1;align=center;verticalAlign=middle;resizable=0;points=[];autosize=1;strokeColor=none;fillColor=none;" parent="1" vertex="1">
          <mxGeometry x="740" y="260" width="240" height="30" as="geometry" />
        </mxCell>
        <mxCell id="nodbz45rd-xEnm5y1TOQ-16" value="BD EXTERNA" style="text;html=1;align=center;verticalAlign=middle;resizable=0;points=[];autosize=1;strokeColor=none;fillColor=none;" parent="1" vertex="1">
          <mxGeometry x="970" y="330" width="100" height="30" as="geometry" />
        </mxCell>
        <mxCell id="nodbz45rd-xEnm5y1TOQ-17" value="realiza pedido foliado en cajas (NO UNIDOSIS)" style="text;html=1;align=center;verticalAlign=middle;whiteSpace=wrap;rounded=0;" parent="1" vertex="1">
          <mxGeometry x="-10" y="150" width="216" height="30" as="geometry" />
        </mxCell>
        <mxCell id="nodbz45rd-xEnm5y1TOQ-18" value="" style="endArrow=classic;html=1;rounded=0;entryX=1;entryY=0.5;entryDx=0;entryDy=0;exitX=-0.017;exitY=0.159;exitDx=0;exitDy=0;exitPerimeter=0;" parent="1" source="nodbz45rd-xEnm5y1TOQ-3" target="nodbz45rd-xEnm5y1TOQ-1" edge="1">
          <mxGeometry width="50" height="50" relative="1" as="geometry">
            <mxPoint x="237" y="224" as="sourcePoint" />
            <mxPoint x="-41" y="220" as="targetPoint" />
          </mxGeometry>
        </mxCell>
        <mxCell id="nodbz45rd-xEnm5y1TOQ-19" value="" style="endArrow=classic;html=1;rounded=0;entryX=0.017;entryY=0.359;entryDx=0;entryDy=0;entryPerimeter=0;exitX=1.027;exitY=0.63;exitDx=0;exitDy=0;exitPerimeter=0;" parent="1" source="nodbz45rd-xEnm5y1TOQ-1" target="nodbz45rd-xEnm5y1TOQ-3" edge="1">
          <mxGeometry width="50" height="50" relative="1" as="geometry">
            <mxPoint x="-42.5" y="260" as="sourcePoint" />
            <mxPoint x="238.5" y="258" as="targetPoint" />
          </mxGeometry>
        </mxCell>
        <mxCell id="nodbz45rd-xEnm5y1TOQ-20" value="surte&amp;nbsp; pedido foliado en cajas (NO UNIDOSIS)" style="text;html=1;align=center;verticalAlign=middle;whiteSpace=wrap;rounded=0;" parent="1" vertex="1">
          <mxGeometry x="-10" y="230" width="216" height="30" as="geometry" />
        </mxCell>
        <mxCell id="nodbz45rd-xEnm5y1TOQ-25" value="" style="shape=cylinder3;whiteSpace=wrap;html=1;boundedLbl=1;backgroundOutline=1;size=15;" parent="1" vertex="1">
          <mxGeometry x="270" y="580" width="60" height="80" as="geometry" />
        </mxCell>
        <mxCell id="nodbz45rd-xEnm5y1TOQ-26" value="" style="endArrow=classic;html=1;rounded=0;exitX=0.5;exitY=1;exitDx=0;exitDy=0;entryX=0;entryY=0;entryDx=0;entryDy=52.5;entryPerimeter=0;" parent="1" source="nodbz45rd-xEnm5y1TOQ-3" target="nodbz45rd-xEnm5y1TOQ-25" edge="1">
          <mxGeometry width="50" height="50" relative="1" as="geometry">
            <mxPoint x="140" y="589" as="sourcePoint" />
            <mxPoint x="230" y="540" as="targetPoint" />
          </mxGeometry>
        </mxCell>
        <mxCell id="nodbz45rd-xEnm5y1TOQ-27" value="recibe pedido foliado desde almacén consumo en piezas (UNIDOSIS)" style="text;html=1;align=center;verticalAlign=middle;resizable=0;points=[];autosize=1;strokeColor=none;fillColor=none;" parent="1" vertex="1">
          <mxGeometry x="100" y="520" width="400" height="30" as="geometry" />
        </mxCell>
        <mxCell id="nodbz45rd-xEnm5y1TOQ-28" value="BD INTERNA" style="text;html=1;align=center;verticalAlign=middle;resizable=0;points=[];autosize=1;strokeColor=none;fillColor=none;" parent="1" vertex="1">
          <mxGeometry x="250" y="660" width="100" height="30" as="geometry" />
        </mxCell>
        <mxCell id="nodbz45rd-xEnm5y1TOQ-30" value="" style="endArrow=classic;html=1;rounded=0;entryX=1;entryY=0.25;entryDx=0;entryDy=0;exitX=0;exitY=0.25;exitDx=0;exitDy=0;" parent="1" source="nodbz45rd-xEnm5y1TOQ-1" target="nodbz45rd-xEnm5y1TOQ-6" edge="1">
          <mxGeometry width="50" height="50" relative="1" as="geometry">
            <mxPoint x="-220" y="260" as="sourcePoint" />
            <mxPoint x="-170" y="210" as="targetPoint" />
          </mxGeometry>
        </mxCell>
        <mxCell id="nodbz45rd-xEnm5y1TOQ-31" value="realiza un pedido por la plataforma de pedidos en cajas (no unidosis)" style="text;html=1;align=center;verticalAlign=middle;whiteSpace=wrap;rounded=0;" parent="1" vertex="1">
          <mxGeometry x="-290" y="160" width="110" height="30" as="geometry" />
        </mxCell>
        <mxCell id="nodbz45rd-xEnm5y1TOQ-32" value="" style="endArrow=classic;html=1;rounded=0;entryX=0;entryY=0.5;entryDx=0;entryDy=0;exitX=1;exitY=0.75;exitDx=0;exitDy=0;" parent="1" source="nodbz45rd-xEnm5y1TOQ-6" target="nodbz45rd-xEnm5y1TOQ-1" edge="1">
          <mxGeometry width="50" height="50" relative="1" as="geometry">
            <mxPoint x="-290" y="300" as="sourcePoint" />
            <mxPoint x="-240" y="250" as="targetPoint" />
          </mxGeometry>
        </mxCell>
        <mxCell id="nodbz45rd-xEnm5y1TOQ-34" value="surte un pedido por la plataforma de pedidos en cajas (no unidosis)" style="text;html=1;align=center;verticalAlign=middle;whiteSpace=wrap;rounded=0;" parent="1" vertex="1">
          <mxGeometry x="-290" y="250" width="110" height="30" as="geometry" />
        </mxCell>
        <mxCell id="v-uxOHc2AJVn70EK1qmy-1" value="FARMACIA ABASTOS" style="rounded=0;whiteSpace=wrap;html=1;" vertex="1" parent="1">
          <mxGeometry x="206" y="-100" width="120" height="190" as="geometry" />
        </mxCell>
        <mxCell id="v-uxOHc2AJVn70EK1qmy-2" value="" style="endArrow=classic;html=1;rounded=0;entryX=1;entryY=0.127;entryDx=0;entryDy=0;exitX=0;exitY=0.5;exitDx=0;exitDy=0;entryPerimeter=0;" edge="1" parent="1" source="v-uxOHc2AJVn70EK1qmy-1" target="nodbz45rd-xEnm5y1TOQ-1">
          <mxGeometry width="50" height="50" relative="1" as="geometry">
            <mxPoint x="90" y="100" as="sourcePoint" />
            <mxPoint x="140" y="50" as="targetPoint" />
          </mxGeometry>
        </mxCell>
        <mxCell id="v-uxOHc2AJVn70EK1qmy-3" value="realiza pedido foliado en cajas (NO UNIDOSIS)" style="text;html=1;align=center;verticalAlign=middle;whiteSpace=wrap;rounded=0;rotation=0;" vertex="1" parent="1">
          <mxGeometry x="-10" y="-40" width="216" height="30" as="geometry" />
        </mxCell>
        <mxCell id="v-uxOHc2AJVn70EK1qmy-5" value="surte&amp;nbsp; pedido foliado en cajas (NO UNIDOSIS)" style="text;html=1;align=center;verticalAlign=middle;whiteSpace=wrap;rounded=0;" vertex="1" parent="1">
          <mxGeometry x="-6" y="20" width="216" height="30" as="geometry" />
        </mxCell>
        <mxCell id="v-uxOHc2AJVn70EK1qmy-7" value="" style="endArrow=classic;html=1;rounded=0;entryX=0.033;entryY=0.825;entryDx=0;entryDy=0;exitX=1;exitY=0.25;exitDx=0;exitDy=0;entryPerimeter=0;" edge="1" parent="1" source="nodbz45rd-xEnm5y1TOQ-1" target="v-uxOHc2AJVn70EK1qmy-1">
          <mxGeometry width="50" height="50" relative="1" as="geometry">
            <mxPoint x="110" y="75" as="sourcePoint" />
            <mxPoint x="329" y="70" as="targetPoint" />
          </mxGeometry>
        </mxCell>
        <mxCell id="v-uxOHc2AJVn70EK1qmy-8" value="" style="endArrow=classic;html=1;rounded=0;entryX=0.75;entryY=1;entryDx=0;entryDy=0;exitX=0.75;exitY=0;exitDx=0;exitDy=0;" edge="1" parent="1" source="nodbz45rd-xEnm5y1TOQ-3" target="v-uxOHc2AJVn70EK1qmy-1">
          <mxGeometry width="50" height="50" relative="1" as="geometry">
            <mxPoint x="270" y="160" as="sourcePoint" />
            <mxPoint x="320" y="110" as="targetPoint" />
          </mxGeometry>
        </mxCell>
        <mxCell id="v-uxOHc2AJVn70EK1qmy-9" value="" style="endArrow=classic;html=1;rounded=0;entryX=0.25;entryY=0;entryDx=0;entryDy=0;exitX=0.25;exitY=1;exitDx=0;exitDy=0;" edge="1" parent="1" source="v-uxOHc2AJVn70EK1qmy-1" target="nodbz45rd-xEnm5y1TOQ-3">
          <mxGeometry width="50" height="50" relative="1" as="geometry">
            <mxPoint x="10" y="140" as="sourcePoint" />
            <mxPoint x="60" y="90" as="targetPoint" />
          </mxGeometry>
        </mxCell>
      </root>
    </mxGraphModel>
  </diagram>
</mxfile>
